<svg width="18" height="18" viewBox="0 0 18 18" fill="none" xmlns="http://www.w3.org/2000/svg">
<path d="M15.0351 13.4115C12.2833 13.4115 9.61351 12.3052 7.66872 10.36C5.72359 8.41525 4.61727 5.74549 4.61727 2.99361C4.61727 2.04095 4.75014 1.09852 5.0039 0.192383C2.12831 1.80552 0.184937 4.88306 0.184937 8.41454C0.184937 13.6184 4.40333 17.8364 9.60681 17.8364C13.1337 17.8364 16.2077 15.898 17.8226 13.0287C16.9207 13.2804 15.9829 13.4115 15.0351 13.4115Z" fill="#FFCF00"/>
<mask id="mask0_857_405" style="mask-type:luminance" maskUnits="userSpaceOnUse" x="0" y="0" width="18" height="18">
<path d="M0 0H18V18H0V0Z" fill="white"/>
</mask>
<g mask="url(#mask0_857_405)">
<path d="M9.60621 18.0148C4.31286 18.0148 0.00634766 13.7083 0.00634766 8.41491C0.00634766 4.94686 1.88769 1.73646 4.91624 0.0373252C4.97897 0.0020808 5.05686 0.00842473 5.11326 0.0528327C5.17 0.0972406 5.19432 0.171606 5.17458 0.240685C4.92258 1.14083 4.79465 2.06705 4.79465 2.99397C4.79465 5.68946 5.88793 8.32856 7.79394 10.2346C9.6996 12.1406 12.3387 13.2339 15.0345 13.2339C15.9569 13.2339 16.8789 13.1073 17.7741 12.8578C17.8435 12.8384 17.9175 12.8624 17.9619 12.9191C18.0063 12.9759 18.0123 13.0538 17.9771 13.1165C16.2766 16.138 13.069 18.0148 9.60621 18.0148ZM4.7231 0.565286C2.02268 2.2482 0.362316 5.21789 0.362316 8.41491C0.362316 13.5119 4.50917 17.6588 9.60621 17.6588C12.7983 17.6588 15.7648 16.0027 17.4491 13.3086C16.6558 13.4954 15.8455 13.5898 15.0345 13.5898C12.245 13.5898 9.51422 12.4588 7.54194 10.4862C5.56967 8.5143 4.43868 5.78321 4.43868 2.99397C4.43868 2.17842 4.53419 1.36357 4.7231 0.565286Z" fill="#FFCF00"/>
</g>
<path d="M11.0596 16.4887C11.8977 16.3449 12.6974 16.0908 13.4439 15.7412L11.0596 16.4887Z" fill="#FFCF00"/>
<path d="M11.0593 16.6672C10.974 16.6672 10.899 16.6059 10.8838 16.5192C10.8672 16.4222 10.9324 16.3303 11.0294 16.3137C11.8379 16.1748 12.6249 15.9281 13.3682 15.5803C13.4573 15.5387 13.5631 15.5771 13.605 15.6659C13.6466 15.7551 13.6082 15.8611 13.519 15.9027C12.7472 16.264 11.9295 16.5202 11.0896 16.6644C11.0791 16.6661 11.0692 16.6672 11.0593 16.6672Z" fill="#FFCF00"/>
<path d="M1.9695 5.34961C1.64349 6.27231 1.45669 7.26091 1.43555 8.29005L1.9695 5.34961Z" fill="#FFCF00"/>
<path d="M1.43596 8.46749C1.43455 8.46749 1.43349 8.46749 1.43208 8.46749C1.33375 8.46573 1.25586 8.38431 1.25798 8.28598C1.27912 7.25931 1.46239 6.25097 1.80215 5.2895C1.83493 5.19681 1.93678 5.14817 2.02948 5.1813C2.12217 5.21408 2.17081 5.31558 2.13803 5.40828C1.81061 6.33379 1.63439 7.30442 1.61359 8.29338C1.61183 8.3903 1.53253 8.46749 1.43596 8.46749Z" fill="#FFCF00"/>
<path d="M9.01752 3.44623L10.1679 3.15053L9.01752 2.85448L8.72182 1.7041L8.42577 2.85448L7.27539 3.15053L8.42577 3.44623L8.72182 4.59661L9.01752 3.44623Z" fill="#FFCF00"/>
<path d="M8.72195 4.77484C8.64053 4.77484 8.56969 4.71986 8.5496 4.64126L8.27998 3.59274L7.23146 3.32312C7.15252 3.30268 7.09753 3.23184 7.09753 3.15078C7.09753 3.06937 7.15252 2.99852 7.23146 2.97843L8.27998 2.70882L8.5496 1.65994C8.56969 1.58135 8.64053 1.52637 8.72195 1.52637C8.80301 1.52637 8.8742 1.58135 8.89429 1.65994L9.16391 2.70882L10.2124 2.97843C10.291 2.99852 10.3464 3.06937 10.3464 3.15078C10.3464 3.23184 10.2914 3.30268 10.2124 3.32312L9.16391 3.59274L8.89429 4.64126C8.87385 4.71986 8.80301 4.77484 8.72195 4.77484ZM7.99027 3.15078L8.4703 3.27413C8.53304 3.29035 8.58238 3.33934 8.59859 3.40207L8.72195 3.8821L8.8453 3.40207C8.86151 3.33934 8.9105 3.29035 8.97324 3.27413L9.45327 3.15078L8.97324 3.02742C8.9105 3.01121 8.86151 2.96187 8.8453 2.89913L8.72195 2.41911L8.59859 2.89913C8.58238 2.96187 8.53304 3.01121 8.4703 3.02742L7.99027 3.15078Z" fill="#FFCF00"/>
<path d="M14.524 9.94916L15.6744 9.65346L14.524 9.35776L14.2283 8.20703L13.9322 9.35776L12.7819 9.65346L13.9322 9.94916L14.2283 11.0995L14.524 9.94916Z" fill="#FFCF00"/>
<path d="M14.2283 11.2778C14.1469 11.2778 14.076 11.2228 14.0559 11.1438L13.7863 10.0953L12.7378 9.8257C12.6589 9.80561 12.6039 9.73477 12.6039 9.65336C12.6039 9.5723 12.6589 9.5011 12.7378 9.48101L13.7863 9.21139L14.0559 8.16287C14.076 8.08428 14.1469 8.0293 14.2283 8.0293C14.3094 8.0293 14.3806 8.08428 14.4006 8.16287L14.6703 9.21139L15.7188 9.48101C15.7974 9.5011 15.8524 9.5723 15.8524 9.65336C15.8524 9.73477 15.7977 9.80561 15.7188 9.8257L14.6703 10.0953L14.4006 11.1438C14.3802 11.2224 14.3094 11.2778 14.2283 11.2778ZM13.4966 9.65336L13.9766 9.77671C14.0394 9.79292 14.0887 9.84191 14.1049 9.90465L14.2283 10.3847L14.3516 9.90465C14.3679 9.84191 14.4169 9.79292 14.4796 9.77671L14.9596 9.65336L14.4796 9.53C14.4169 9.51379 14.3679 9.46445 14.3516 9.40171L14.2283 8.92168L14.1049 9.40171C14.0887 9.46445 14.0394 9.51379 13.9766 9.53L13.4966 9.65336Z" fill="#FFCF00"/>
<path d="M10.165 8.22553L11.3157 7.92983L10.165 7.63413L9.86965 6.4834L9.57359 7.63413L8.42322 7.92983L9.57359 8.22553L9.86965 9.3759L10.165 8.22553Z" fill="#FFCF00"/>
<path d="M9.86965 9.55316C9.78824 9.55316 9.7174 9.49818 9.69695 9.41958L9.42734 8.37106L8.37882 8.10144C8.30022 8.08136 8.24524 8.01016 8.24524 7.9291C8.24524 7.84769 8.30022 7.77684 8.37882 7.75676L9.42734 7.48714L9.69695 6.43862C9.7174 6.35967 9.78824 6.30469 9.86965 6.30469C9.95071 6.30469 10.0219 6.35967 10.042 6.43862L10.3113 7.48714L11.3598 7.75676C11.4387 7.77684 11.4937 7.84769 11.4937 7.9291C11.4937 8.01016 11.4387 8.08136 11.3598 8.10144L10.3113 8.37106L10.042 9.41958C10.0216 9.49818 9.95071 9.55316 9.86965 9.55316ZM9.13798 7.9291L9.61801 8.05246C9.68074 8.06867 9.72973 8.11766 9.74594 8.18039L9.8693 8.66042L9.99265 8.18074C10.0089 8.11766 10.0579 8.06867 10.1209 8.05246L10.6006 7.9291L10.1209 7.80574C10.0579 7.78953 10.0089 7.74054 9.99265 7.67781L9.8693 7.19778L9.74594 7.67781C9.72973 7.74054 9.68074 7.78953 9.61801 7.80574L9.13798 7.9291Z" fill="#FFCF00"/>
<path d="M13.2625 4.11523H11.5218C11.4513 4.11523 11.3871 4.07329 11.3586 4.00879C11.3304 3.94394 11.3431 3.86852 11.391 3.81635L12.743 2.34913H11.5471C11.4488 2.34913 11.3691 2.26948 11.3691 2.17115C11.3691 2.07282 11.4488 1.99316 11.5471 1.99316H13.149C13.2195 1.99316 13.2836 2.0351 13.3118 2.0996C13.3404 2.16445 13.3277 2.23987 13.2797 2.29168L11.9278 3.75926H13.2625C13.3608 3.75926 13.4405 3.83891 13.4405 3.93724C13.4405 4.03557 13.3608 4.11523 13.2625 4.11523Z" fill="#FFCF00"/>
<path d="M15.4826 6.70828H14.4481C14.3777 6.70828 14.3135 6.66634 14.285 6.60149C14.2568 6.53699 14.2695 6.46157 14.3174 6.40941L15.0092 5.6587H14.4633C14.365 5.6587 14.2853 5.57905 14.2853 5.48072C14.2853 5.38239 14.365 5.30273 14.4633 5.30273H15.4153C15.4857 5.30273 15.5499 5.34468 15.5784 5.40952C15.6066 5.47402 15.5939 5.54944 15.546 5.60161L14.8542 6.35231H15.4826C15.5809 6.35231 15.6606 6.43196 15.6606 6.5303C15.6606 6.62863 15.5809 6.70828 15.4826 6.70828Z" fill="#FFCF00"/>
<path d="M16.7688 3.60574H15.7347C15.6639 3.60574 15.5998 3.5638 15.5716 3.49895C15.5434 3.43445 15.5557 3.35903 15.6036 3.30687L16.2955 2.55616H15.7495C15.6512 2.55616 15.5716 2.47651 15.5716 2.37818C15.5716 2.27985 15.6512 2.2002 15.7495 2.2002H16.7015C16.7723 2.2002 16.8365 2.24214 16.8647 2.30699C16.8929 2.37148 16.8805 2.44691 16.8326 2.49907L16.1408 3.24977H16.7688C16.8671 3.24977 16.9468 3.32942 16.9468 3.42776C16.9468 3.52609 16.8671 3.60574 16.7688 3.60574Z" fill="#FFCF00"/>
</svg>
