<svg width="220" height="159" viewBox="0 0 220 159" fill="none" xmlns="http://www.w3.org/2000/svg">
<path d="M1.39486 124.714L0.494446 123.464L0.594492 121.593H8.248L8.39807 124.124L6.48719 124.634L9.7887 134.939L12.4299 126.735L11.2494 123.304L11.3594 121.593H18.4427L18.6027 124.124L16.8519 124.634L20.1234 134.939L23.1848 125.515C23.2374 125.37 23.2649 125.242 23.2649 125.134C23.2649 124.909 23.1498 124.759 22.9247 124.684L21.1139 123.934L21.274 121.593H28.2472L28.3872 123.854L27.2967 125.354L21.6942 139.661L17.032 140.111L14.2407 131.958L11.3594 139.661L6.42716 140.111L1.39486 124.714Z" fill="#F5F5F5"/>
<path d="M33.6915 145.655C32.4109 144.8 31.2729 143.699 30.2799 142.354L33.2313 139.443L29.3695 129.268C29.1744 128.788 29.0419 128.478 28.9693 128.337C28.9043 128.197 28.7693 128.002 28.5692 127.747L28.119 127.167L28.249 125.616H35.0721L35.3423 127.887L33.7916 128.257L35.9826 134.94L38.4337 128.818C38.4662 128.713 38.4837 128.633 38.4837 128.578C38.4837 128.417 38.4137 128.312 38.2736 128.257L37.023 127.727L37.2631 125.616H42.3155L42.5556 127.777L39.154 135.211C37.926 137.892 36.913 139.995 36.1126 141.524C35.3123 143.049 34.5044 144.427 33.6915 145.655Z" fill="#F5F5F5"/>
<path d="M43.9174 136.991L45.5682 136.511V130.068C45.5682 129.675 45.5407 129.422 45.4881 129.307C45.4331 129.195 45.293 129.065 45.0679 128.917L43.8974 128.287L43.9774 126.286L44.5577 126.176C46.8838 125.716 48.562 125.471 49.59 125.436C49.7351 125.811 49.8526 126.216 49.9402 126.656C51.0257 126.163 51.9111 125.823 52.5914 125.636C53.2767 125.451 53.922 125.355 54.5223 125.355C57.3486 125.355 58.7642 127.044 58.7642 130.418V135.64C58.7642 136.008 58.7892 136.255 58.8442 136.381C58.8968 136.508 59.0468 136.641 59.2945 136.781L60.575 137.531L60.465 139.522H53.1116L52.9816 136.991L54.2822 136.621V131.588C54.2822 130.788 54.2546 130.228 54.2021 129.908C54.1471 129.587 54.002 129.342 53.7619 129.167C53.5218 128.987 53.1016 128.897 52.5013 128.897C51.861 128.897 51.0507 128.995 50.0702 129.187V135.64C50.0702 136.008 50.0952 136.255 50.1503 136.381C50.2028 136.508 50.3454 136.641 50.5805 136.781L51.8811 137.531L51.781 139.522H44.0575L43.9174 136.991Z" fill="#F5F5F5"/>
<path d="M66.7248 139.902C65.1641 139.902 64.0086 139.517 63.2632 138.741C62.5154 137.968 62.1427 136.79 62.1427 135.21V128.737H60.2819V126.786L65.0741 122.424L66.6248 122.604V125.615H71.0968V128.757H66.6248V134.249C66.6248 135.105 66.7398 135.675 66.9749 135.96C67.215 136.24 67.6802 136.38 68.3756 136.38C68.9608 136.38 69.7787 136.3 70.8267 136.14L71.1468 138.861C70.5065 139.161 69.7887 139.409 68.9959 139.602C68.208 139.802 67.4501 139.902 66.7248 139.902Z" fill="#F5F5F5"/>
<path d="M78.7991 139.872C76.7182 139.872 75.1124 139.242 73.9869 137.981C72.8589 136.721 72.2961 134.98 72.2961 132.759C72.2961 131.213 72.5688 129.885 73.1165 128.777C73.6693 127.664 74.4521 126.816 75.4676 126.236C76.4806 125.651 77.6611 125.355 79.0092 125.355C81.0151 125.355 82.5558 125.996 83.6313 127.276C84.7043 128.552 85.2146 130.368 85.162 132.729L77.0683 134.22C77.3134 134.967 77.6636 135.515 78.1188 135.86C78.5715 136.208 79.1718 136.381 79.9196 136.381C80.4324 136.381 81.0427 136.308 81.7505 136.16C82.4633 136.008 83.1836 135.798 83.9115 135.53L84.5217 138.171C83.8664 138.667 83.0136 139.072 81.9606 139.392C80.9126 139.712 79.8596 139.872 78.7991 139.872ZM80.79 130.498C80.755 129.818 80.5649 129.325 80.2198 129.017C79.8721 128.705 79.3894 128.547 78.7691 128.547C78.2539 128.547 77.7687 128.617 77.3084 128.757C76.9333 129.632 76.7632 130.575 76.7982 131.588L80.79 130.498Z" fill="#F5F5F5"/>
<path d="M86.4978 137.019L88.1185 136.539V130.066C88.1185 129.673 88.091 129.42 88.0385 129.305C87.9835 129.193 87.8434 129.063 87.6183 128.915L86.4478 128.285L86.5278 126.284C86.8279 126.211 87.083 126.169 87.2981 126.154C89.4441 125.709 91.0324 125.469 92.0603 125.434C92.2204 125.894 92.373 126.472 92.5205 127.164C93.586 126.332 94.4914 125.754 95.2318 125.434H96.7525C96.7325 126.109 96.6849 126.842 96.6124 127.635C96.5449 128.422 96.4573 129.055 96.3523 129.535C95.712 129.495 95.2418 129.475 94.9416 129.475C94.1938 129.475 93.4209 129.523 92.6206 129.616V135.658C92.6206 136.033 92.6456 136.284 92.7006 136.409C92.7531 136.529 92.8957 136.664 93.1308 136.809L94.7316 137.659L94.6215 139.55H86.6278L86.4978 137.019Z" fill="#F5F5F5"/>
<path d="M98.5885 130.016C99.2488 128.631 99.6515 127.755 99.799 127.395C99.9516 127.03 100.029 126.74 100.029 126.525C100.029 126.365 99.9841 126.212 99.8991 126.064C99.8115 125.912 99.6615 125.734 99.4489 125.534L98.0582 124.314C98.9111 123.088 99.824 121.968 100.799 120.952C101.545 121.507 102.045 121.898 102.3 122.123C102.78 122.538 103.123 122.908 103.331 123.233C103.543 123.561 103.651 123.911 103.651 124.284C103.651 125.159 102.655 127.005 100.669 129.826L98.5885 130.016Z" fill="#F5F5F5"/>
<path d="M110.211 140C108.81 140 107.184 139.753 105.338 139.26C105.443 137.519 105.558 136.234 105.679 135.398L107.199 135.098L108.88 136.889C109.465 137.064 110.123 137.149 110.851 137.149C111.256 137.149 111.576 137.124 111.811 137.069C111.864 136.929 111.891 136.736 111.891 136.489C111.891 136.276 111.841 136.098 111.741 135.958C111.641 135.813 111.421 135.643 111.081 135.448C110.746 135.256 110.163 134.953 109.33 134.538C108.282 133.993 107.482 133.502 106.929 133.067C106.381 132.627 105.989 132.177 105.749 131.716C105.508 131.256 105.388 130.706 105.388 130.066C105.388 128.645 105.914 127.52 106.969 126.684C108.03 125.851 109.463 125.434 111.271 125.434C112.016 125.434 112.804 125.519 113.632 125.684C114.458 125.851 115.198 126.079 115.853 126.364C115.853 127.52 115.773 128.805 115.613 130.226L114.232 130.436L112.452 128.525C111.984 128.38 111.306 128.305 110.421 128.305C110.281 128.305 109.996 128.325 109.57 128.365C109.515 128.472 109.49 128.64 109.49 128.865C109.49 129.113 109.56 129.33 109.7 129.515C109.845 129.703 110.101 129.911 110.461 130.136C110.826 130.356 111.411 130.671 112.212 131.076C113.377 131.644 114.257 132.137 114.853 132.557C115.453 132.977 115.873 133.402 116.113 133.827C116.353 134.248 116.473 134.763 116.473 135.368C116.473 136.824 115.916 137.959 114.803 138.78C113.695 139.593 112.164 140 110.211 140Z" fill="#F5F5F5"/>
<path d="M128.783 139.633C126.862 139.633 125.093 139.553 123.48 139.393L123.35 136.832L125.291 136.302V126.157C125.291 125.692 125.253 125.384 125.181 125.237C125.113 125.084 124.926 124.944 124.621 124.816L123.24 124.046L123.4 121.835C125.246 121.695 126.802 121.585 128.062 121.505C129.323 121.425 130.333 121.385 131.094 121.385C133.547 121.385 135.516 121.67 136.996 122.235C138.482 122.803 139.567 123.701 140.248 124.926C140.933 126.154 141.278 127.778 141.278 129.799C141.278 132.36 140.69 134.431 139.517 136.011C138.469 137.38 137.079 138.328 135.346 138.853C133.617 139.373 131.429 139.633 128.783 139.633ZM132.134 135.821C133.627 135.821 134.808 135.646 135.676 135.291C135.836 134.846 135.981 134.151 136.116 133.21C136.248 132.27 136.316 131.394 136.316 130.579C136.316 128.573 135.901 127.087 135.075 126.127C134.255 125.166 132.999 124.686 131.314 124.686C131.079 124.686 130.866 124.696 130.673 124.716C130.478 124.731 130.293 124.746 130.113 124.766V135.691C130.818 135.779 131.494 135.821 132.134 135.821Z" fill="#F5F5F5"/>
<path d="M142.663 137.019L144.284 136.539V130.066C144.284 129.673 144.256 129.42 144.204 129.305C144.149 129.193 144.009 129.063 143.784 128.915L142.613 128.285L142.693 126.284C142.993 126.211 143.248 126.169 143.463 126.154C145.609 125.709 147.198 125.469 148.226 125.434C148.386 125.894 148.538 126.472 148.686 127.164C149.751 126.332 150.657 125.754 151.397 125.434H152.918C152.898 126.109 152.85 126.842 152.778 127.635C152.71 128.422 152.623 129.055 152.518 129.535C151.877 129.495 151.407 129.475 151.107 129.475C150.359 129.475 149.586 129.523 148.786 129.616V135.658C148.786 136.033 148.811 136.284 148.866 136.409C148.918 136.529 149.061 136.664 149.296 136.809L150.897 137.659L150.787 139.55H142.793L142.663 137.019Z" fill="#F5F5F5"/>
<path d="M160.196 139.872C158.115 139.872 156.51 139.242 155.384 137.981C154.256 136.721 153.693 134.98 153.693 132.759C153.693 131.213 153.966 129.885 154.514 128.777C155.066 127.664 155.849 126.816 156.865 126.236C157.878 125.651 159.058 125.355 160.406 125.355C162.412 125.355 163.953 125.996 165.028 127.276C166.101 128.552 166.612 130.368 166.559 132.729L158.465 134.22C158.711 134.967 159.061 135.515 159.516 135.86C159.969 136.208 160.569 136.381 161.317 136.381C161.83 136.381 162.44 136.308 163.148 136.16C163.86 136.008 164.581 135.798 165.309 135.53L165.919 138.171C165.264 138.667 164.411 139.072 163.358 139.392C162.31 139.712 161.257 139.872 160.196 139.872ZM162.187 130.498C162.152 129.818 161.962 129.325 161.617 129.017C161.269 128.705 160.787 128.547 160.166 128.547C159.651 128.547 159.166 128.617 158.706 128.757C158.33 129.632 158.16 130.575 158.195 131.588L162.187 130.498Z" fill="#F5F5F5"/>
<path d="M171.707 139.902C170.499 139.902 169.528 139.567 168.795 138.902C168.067 138.236 167.705 137.378 167.705 136.33C167.705 134.925 168.41 133.824 169.826 133.029C171.239 132.229 173.292 131.776 175.989 131.668C175.989 130.835 175.921 130.218 175.789 129.818C175.661 129.417 175.423 129.142 175.078 128.987C174.731 128.835 174.2 128.757 173.487 128.757C172.76 128.757 172.247 128.785 171.947 128.837L170.846 130.998L168.875 130.868C168.575 129.447 168.365 127.974 168.245 126.446C169.238 126.106 170.326 125.841 171.507 125.646C172.687 125.453 173.79 125.355 174.818 125.355C176.704 125.355 178.055 125.726 178.87 126.466C179.69 127.201 180.101 128.417 180.101 130.118V135.69C180.101 136.01 180.131 136.235 180.191 136.361C180.251 136.481 180.386 136.606 180.601 136.731L181.671 137.341L181.561 138.992C179.5 139.472 177.874 139.737 176.689 139.792C176.649 139.685 176.591 139.497 176.519 139.222C176.451 138.942 176.391 138.679 176.339 138.431C175.643 138.879 174.883 139.237 174.058 139.502C173.237 139.767 172.452 139.902 171.707 139.902ZM173.487 136.891C174.2 136.891 175.061 136.651 176.069 136.17L175.969 134.139C175.541 134.107 175.258 134.089 175.118 134.089C174.638 134.089 174.078 134.139 173.437 134.24C172.797 134.335 172.289 134.445 171.917 134.57C171.862 134.805 171.837 135.017 171.837 135.21C171.837 135.745 171.982 136.158 172.277 136.451C172.57 136.746 172.972 136.891 173.487 136.891Z" fill="#F5F5F5"/>
<path d="M182.626 137.021L184.276 136.541V130.068C184.276 129.675 184.249 129.422 184.196 129.307C184.141 129.195 184.001 129.065 183.776 128.917L182.606 128.287L182.686 126.286L183.396 126.156C185.582 125.711 187.2 125.471 188.248 125.436C188.388 125.811 188.503 126.191 188.598 126.576C189.559 126.136 190.379 125.823 191.06 125.636C191.745 125.451 192.373 125.355 192.94 125.355C193.633 125.355 194.281 125.486 194.881 125.746C195.487 126.001 195.942 126.341 196.242 126.766C197.255 126.266 198.165 125.906 198.973 125.686C199.779 125.466 200.546 125.355 201.274 125.355C202.735 125.355 203.808 125.773 204.496 126.606C205.189 127.441 205.536 128.712 205.536 130.418V135.66C205.536 136.035 205.561 136.285 205.616 136.411C205.669 136.531 205.821 136.666 206.076 136.811L207.347 137.551L207.247 139.552H200.004L199.864 137.021L201.144 136.651V131.608C201.144 130.848 201.119 130.305 201.074 129.978C201.034 129.645 200.887 129.385 200.634 129.197C200.386 129.012 199.969 128.917 199.383 128.917C198.923 128.917 198.153 128.997 197.072 129.157C197.105 129.445 197.122 129.865 197.122 130.418V135.66C197.122 136.035 197.147 136.285 197.202 136.411C197.255 136.531 197.415 136.666 197.683 136.811L198.983 137.551L198.883 139.552H191.58L191.45 137.021L192.73 136.651V131.608C192.73 130.828 192.705 130.275 192.66 129.948C192.613 129.622 192.465 129.367 192.22 129.187C191.972 129.007 191.562 128.917 190.989 128.917C190.369 128.917 189.614 128.997 188.728 129.157V135.66C188.728 136.035 188.753 136.285 188.808 136.411C188.861 136.531 189.004 136.666 189.239 136.811L190.539 137.551L190.429 139.552H182.766L182.626 137.021Z" fill="#F5F5F5"/>
<path d="M213.243 140C211.842 140 210.216 139.753 208.37 139.26C208.475 137.519 208.591 136.234 208.711 135.398L210.231 135.098L211.912 136.889C212.497 137.064 213.155 137.149 213.883 137.149C214.288 137.149 214.608 137.124 214.843 137.069C214.896 136.929 214.923 136.736 214.923 136.489C214.923 136.276 214.873 136.098 214.773 135.958C214.673 135.813 214.453 135.643 214.113 135.448C213.778 135.256 213.195 134.953 212.362 134.538C211.314 133.993 210.514 133.502 209.961 133.067C209.413 132.627 209.021 132.177 208.781 131.716C208.541 131.256 208.42 130.706 208.42 130.066C208.42 128.645 208.946 127.52 210.001 126.684C211.062 125.851 212.495 125.434 214.303 125.434C215.048 125.434 215.836 125.519 216.664 125.684C217.49 125.851 218.23 126.079 218.885 126.364C218.885 127.52 218.805 128.805 218.645 130.226L217.264 130.436L215.484 128.525C215.016 128.38 214.338 128.305 213.453 128.305C213.313 128.305 213.028 128.325 212.602 128.365C212.547 128.472 212.522 128.64 212.522 128.865C212.522 129.113 212.592 129.33 212.732 129.515C212.877 129.703 213.133 129.911 213.493 130.136C213.858 130.356 214.443 130.671 215.244 131.076C216.409 131.644 217.29 132.137 217.885 132.557C218.485 132.977 218.905 133.402 219.145 133.827C219.385 134.248 219.506 134.763 219.506 135.368C219.506 136.824 218.948 137.959 217.835 138.78C216.727 139.593 215.196 140 213.243 140Z" fill="#F5F5F5"/>
<path d="M19.1381 158.851L17.3973 152.479H18.1777L19.5083 157.671H19.5683L20.929 152.479H21.7994L23.16 157.671H23.22L24.5506 152.479H25.341L23.5902 158.851H22.7998L21.3892 153.769H21.3391L19.9385 158.851H19.1381Z" fill="#F5F5F5"/>
<path d="M28.3622 158.851V152.479H29.1325V155.32H32.5341V152.479H33.3044V158.851H32.5341V156H29.1325V158.851H28.3622Z" fill="#F5F5F5"/>
<path d="M36.9169 158.851V152.479H40.7686V153.159H37.6872V155.32H40.5685V156H37.6872V158.171H40.8187V158.851H36.9169Z" fill="#F5F5F5"/>
<path d="M44.2266 158.851V152.479H46.3776C46.8778 152.479 47.288 152.566 47.6082 152.739C47.9283 152.906 48.1634 153.136 48.3185 153.429C48.4711 153.724 48.5486 154.057 48.5486 154.429C48.5486 154.857 48.4511 155.227 48.2585 155.54C48.0634 155.855 47.7632 156.08 47.3581 156.22L48.7987 158.851H47.8983L46.5577 156.36C46.5027 156.36 46.4501 156.36 46.3976 156.36H44.997V158.851H44.2266ZM44.997 155.66H46.3676C46.8803 155.66 47.243 155.555 47.4581 155.34C47.6782 155.12 47.7883 154.817 47.7883 154.429C47.7883 154.049 47.6782 153.744 47.4581 153.509C47.238 153.276 46.8703 153.159 46.3576 153.159H44.997V155.66Z" fill="#F5F5F5"/>
<path d="M51.8974 158.851V152.479H55.7492V153.159H52.6678V155.32H55.5491V156H52.6678V158.171H55.7992V158.851H51.8974Z" fill="#F5F5F5"/>
<path d="M67.2322 154.067C67.1922 153.755 67.0371 153.512 66.772 153.337C66.5043 153.165 66.1767 153.077 65.7915 153.077C65.3713 153.077 65.0312 153.177 64.7711 153.377C64.5159 153.577 64.3909 153.827 64.3909 154.128C64.3909 154.363 64.4609 154.548 64.601 154.688C64.741 154.828 64.9036 154.938 65.0912 155.018C65.2838 155.093 65.4614 155.148 65.6214 155.188L66.2717 155.368C66.4368 155.408 66.6219 155.468 66.822 155.548C67.0271 155.623 67.2247 155.726 67.4123 155.858C67.5973 155.993 67.7524 156.163 67.8725 156.369C67.9975 156.569 68.0626 156.819 68.0626 157.119C68.0626 157.467 67.9725 157.779 67.7924 158.059C67.6124 158.334 67.3472 158.555 67.0021 158.72C66.6619 158.88 66.2467 158.96 65.7615 158.96C65.0737 158.96 64.5259 158.8 64.1208 158.48C63.7206 158.154 63.503 157.729 63.4705 157.209H64.2608C64.2858 157.449 64.3709 157.649 64.5109 157.809C64.651 157.964 64.8311 158.079 65.0512 158.159C65.2713 158.234 65.5064 158.269 65.7615 158.269C66.0541 158.269 66.3168 158.224 66.5519 158.129C66.7845 158.029 66.9671 157.894 67.1021 157.719C67.2422 157.547 67.3122 157.344 67.3122 157.109C67.3122 156.896 67.2522 156.724 67.1321 156.589C67.0171 156.456 66.8645 156.349 66.6719 156.268C66.4768 156.183 66.2667 156.108 66.0416 156.048L65.2613 155.828C64.7611 155.683 64.3634 155.478 64.0707 155.218C63.7831 154.953 63.6405 154.603 63.6405 154.168C63.6405 153.815 63.7356 153.505 63.9307 153.237C64.1233 152.972 64.3834 152.764 64.711 152.617C65.0437 152.464 65.4138 152.387 65.8215 152.387C66.2342 152.387 66.5969 152.462 66.912 152.607C67.2322 152.754 67.4848 152.954 67.6724 153.207C67.865 153.462 67.965 153.747 67.9725 154.067H67.2322Z" fill="#F5F5F5"/>
<path d="M71.0488 153.159V152.479H75.831V153.159H73.83V158.851H73.0597V153.159H71.0488Z" fill="#F5F5F5"/>
<path d="M84.4769 155.658C84.4769 156.334 84.3519 156.916 84.1068 157.409C83.8667 157.897 83.5315 158.274 83.1063 158.54C82.6861 158.807 82.2009 158.94 81.6556 158.94C81.1154 158.94 80.6302 158.807 80.205 158.54C79.7848 158.274 79.4496 157.897 79.2045 157.409C78.9644 156.916 78.8444 156.334 78.8444 155.658C78.8444 154.993 78.9644 154.415 79.2045 153.927C79.4496 153.435 79.7848 153.055 80.205 152.787C80.6302 152.522 81.1154 152.387 81.6556 152.387C82.2009 152.387 82.6861 152.522 83.1063 152.787C83.5315 153.055 83.8667 153.435 84.1068 153.927C84.3519 154.415 84.4769 154.993 84.4769 155.658ZM83.7266 155.658C83.7266 155.113 83.6316 154.648 83.4465 154.268C83.2664 153.887 83.0188 153.602 82.7061 153.407C82.391 153.207 82.0408 153.107 81.6556 153.107C81.2755 153.107 80.9278 153.207 80.6152 153.407C80.3 153.602 80.0499 153.887 79.8648 154.268C79.6847 154.648 79.5947 155.113 79.5947 155.658C79.5947 156.213 79.6847 156.679 79.8648 157.059C80.0499 157.439 80.3 157.729 80.6152 157.929C80.9278 158.124 81.2755 158.219 81.6556 158.219C82.0408 158.219 82.391 158.124 82.7061 157.929C83.0188 157.729 83.2664 157.439 83.4465 157.059C83.6316 156.679 83.7266 156.213 83.7266 155.658Z" fill="#F5F5F5"/>
<path d="M87.8358 158.851V152.479H89.9868C90.487 152.479 90.8972 152.566 91.2174 152.739C91.5375 152.906 91.7726 153.136 91.9277 153.429C92.0803 153.724 92.1578 154.057 92.1578 154.429C92.1578 154.857 92.0603 155.227 91.8677 155.54C91.6726 155.855 91.3724 156.08 90.9673 156.22L92.4079 158.851H91.5075L90.1669 156.36C90.1119 156.36 90.0593 156.36 90.0068 156.36H88.6062V158.851H87.8358ZM88.6062 155.66H89.9768C90.4895 155.66 90.8522 155.555 91.0673 155.34C91.2874 155.12 91.3974 154.817 91.3974 154.429C91.3974 154.049 91.2874 153.744 91.0673 153.509C90.8472 153.276 90.4795 153.159 89.9668 153.159H88.6062V155.66Z" fill="#F5F5F5"/>
<path d="M96.2769 152.479V158.851H95.5066V152.479H96.2769Z" fill="#F5F5F5"/>
<path d="M99.8907 158.851V152.479H103.743V153.159H100.661V155.32H103.542V156H100.661V158.171H103.793V158.851H99.8907Z" fill="#F5F5F5"/>
<path d="M110.692 154.067C110.652 153.755 110.497 153.512 110.232 153.337C109.964 153.165 109.637 153.077 109.251 153.077C108.831 153.077 108.491 153.177 108.231 153.377C107.976 153.577 107.851 153.827 107.851 154.128C107.851 154.363 107.921 154.548 108.061 154.688C108.201 154.828 108.363 154.938 108.551 155.018C108.744 155.093 108.921 155.148 109.081 155.188L109.732 155.368C109.897 155.408 110.082 155.468 110.282 155.548C110.487 155.623 110.685 155.726 110.872 155.858C111.057 155.993 111.212 156.163 111.332 156.369C111.457 156.569 111.522 156.819 111.522 157.119C111.522 157.467 111.432 157.779 111.252 158.059C111.072 158.334 110.807 158.555 110.462 158.72C110.122 158.88 109.707 158.96 109.221 158.96C108.534 158.96 107.986 158.8 107.581 158.48C107.18 158.154 106.963 157.729 106.93 157.209H107.721C107.746 157.449 107.831 157.649 107.971 157.809C108.111 157.964 108.291 158.079 108.511 158.159C108.731 158.234 108.966 158.269 109.221 158.269C109.514 158.269 109.777 158.224 110.012 158.129C110.244 158.029 110.427 157.894 110.562 157.719C110.702 157.547 110.772 157.344 110.772 157.109C110.772 156.896 110.712 156.724 110.592 156.589C110.477 156.456 110.324 156.349 110.132 156.268C109.937 156.183 109.727 156.108 109.501 156.048L108.721 155.828C108.221 155.683 107.823 155.478 107.531 155.218C107.243 154.953 107.1 154.603 107.1 154.168C107.1 153.815 107.195 153.505 107.391 153.237C107.583 152.972 107.843 152.764 108.171 152.617C108.504 152.464 108.874 152.387 109.281 152.387C109.694 152.387 110.057 152.462 110.372 152.607C110.692 152.754 110.945 152.954 111.132 153.207C111.325 153.462 111.425 153.747 111.432 154.067H110.692Z" fill="#F5F5F5"/>
<path d="M124.525 154.468H123.754C123.687 154.175 123.564 153.927 123.384 153.727C123.209 153.522 122.999 153.367 122.754 153.267C122.506 153.162 122.239 153.107 121.953 153.107C121.573 153.107 121.226 153.207 120.913 153.407C120.598 153.602 120.348 153.887 120.163 154.268C119.983 154.648 119.892 155.113 119.892 155.658C119.892 156.213 119.983 156.679 120.163 157.059C120.348 157.439 120.598 157.729 120.913 157.929C121.226 158.124 121.573 158.219 121.953 158.219C122.239 158.219 122.506 158.167 122.754 158.059C122.999 157.954 123.209 157.799 123.384 157.599C123.564 157.399 123.687 157.154 123.754 156.859H124.525C124.445 157.294 124.28 157.667 124.034 157.979C123.794 158.287 123.494 158.525 123.134 158.69C122.779 158.855 122.386 158.94 121.953 158.94C121.413 158.94 120.928 158.807 120.503 158.54C120.083 158.274 119.747 157.897 119.502 157.409C119.262 156.916 119.142 156.334 119.142 155.658C119.142 154.993 119.262 154.415 119.502 153.927C119.747 153.435 120.083 153.055 120.503 152.787C120.928 152.522 121.413 152.387 121.953 152.387C122.386 152.387 122.779 152.472 123.134 152.637C123.494 152.804 123.794 153.045 124.034 153.357C124.28 153.665 124.445 154.035 124.525 154.468Z" fill="#F5F5F5"/>
<path d="M133.217 155.658C133.217 156.334 133.092 156.916 132.847 157.409C132.607 157.897 132.272 158.274 131.847 158.54C131.426 158.807 130.941 158.94 130.396 158.94C129.856 158.94 129.371 158.807 128.945 158.54C128.525 158.274 128.19 157.897 127.945 157.409C127.705 156.916 127.585 156.334 127.585 155.658C127.585 154.993 127.705 154.415 127.945 153.927C128.19 153.435 128.525 153.055 128.945 152.787C129.371 152.522 129.856 152.387 130.396 152.387C130.941 152.387 131.426 152.522 131.847 152.787C132.272 153.055 132.607 153.435 132.847 153.927C133.092 154.415 133.217 154.993 133.217 155.658ZM132.467 155.658C132.467 155.113 132.372 154.648 132.187 154.268C132.007 153.887 131.759 153.602 131.446 153.407C131.131 153.207 130.781 153.107 130.396 153.107C130.016 153.107 129.668 153.207 129.356 153.407C129.04 153.602 128.79 153.887 128.605 154.268C128.425 154.648 128.335 155.113 128.335 155.658C128.335 156.213 128.425 156.679 128.605 157.059C128.79 157.439 129.04 157.729 129.356 157.929C129.668 158.124 130.016 158.219 130.396 158.219C130.781 158.219 131.131 158.124 131.446 157.929C131.759 157.729 132.007 157.439 132.187 157.059C132.372 156.679 132.467 156.213 132.467 155.658Z" fill="#F5F5F5"/>
<path d="M136.576 152.479H137.497L139.668 157.771H139.738L141.909 152.479H142.829V158.851H142.109V154.009H142.039L140.048 158.851H139.357L137.367 154.009H137.297V158.851H136.576V152.479Z" fill="#F5F5F5"/>
<path d="M146.637 158.851V152.479H150.489V153.159H147.407V155.32H150.289V156H147.407V158.171H150.539V158.851H146.637Z" fill="#F5F5F5"/>
<path d="M158.13 153.159V152.479H162.912V153.159H160.912V158.851H160.141V153.159H158.13Z" fill="#F5F5F5"/>
<path d="M171.558 155.658C171.558 156.334 171.433 156.916 171.188 157.409C170.948 157.897 170.613 158.274 170.188 158.54C169.768 158.807 169.282 158.94 168.737 158.94C168.197 158.94 167.712 158.807 167.287 158.54C166.866 158.274 166.531 157.897 166.286 157.409C166.046 156.916 165.926 156.334 165.926 155.658C165.926 154.993 166.046 154.415 166.286 153.927C166.531 153.435 166.866 153.055 167.287 152.787C167.712 152.522 168.197 152.387 168.737 152.387C169.282 152.387 169.768 152.522 170.188 152.787C170.613 153.055 170.948 153.435 171.188 153.927C171.433 154.415 171.558 154.993 171.558 155.658ZM170.808 155.658C170.808 155.113 170.713 154.648 170.528 154.268C170.348 153.887 170.1 153.602 169.788 153.407C169.473 153.207 169.122 153.107 168.737 153.107C168.357 153.107 168.009 153.207 167.697 153.407C167.382 153.602 167.131 153.887 166.946 154.268C166.766 154.648 166.676 155.113 166.676 155.658C166.676 156.213 166.766 156.679 166.946 157.059C167.131 157.439 167.382 157.729 167.697 157.929C168.009 158.124 168.357 158.219 168.737 158.219C169.122 158.219 169.473 158.124 169.788 157.929C170.1 157.729 170.348 157.439 170.528 157.059C170.713 156.679 170.808 156.213 170.808 155.658Z" fill="#F2F2F2"/>
<path d="M179.451 158.851V152.479H180.221V158.171H183.183V158.851H179.451Z" fill="#F5F5F5"/>
<path d="M187.22 152.479V158.851H186.449V152.479H187.22Z" fill="#F5F5F5"/>
<path d="M190.834 158.851V152.479H194.655V153.159H191.604V155.32H194.375V156H191.604V158.851H190.834Z" fill="#F5F5F5"/>
<path d="M198.044 158.851V152.479H201.895V153.159H198.814V155.32H201.695V156H198.814V158.171H201.945V158.851H198.044Z" fill="#F5F5F5"/>
<path d="M144.501 77.7039C128.686 77.7039 113.347 71.346 102.172 60.1709C90.9965 48.9933 84.6386 33.6538 84.6386 17.8415C84.6386 12.3665 85.4015 6.95153 86.8596 1.74414C70.337 11.0134 59.1694 28.6965 59.1694 48.9908C59.1694 78.892 83.408 103.131 113.309 103.131C133.576 103.131 151.239 91.9905 160.518 75.5029C155.336 76.9486 149.946 77.7039 144.501 77.7039Z" fill="#FFCF00"/>
<mask id="mask0_844_9868" style="mask-type:luminance" maskUnits="userSpaceOnUse" x="58" y="0" width="104" height="105">
<path d="M58.109 0.640625H161.837V104.358H58.109V0.640625Z" fill="white"/>
</mask>
<g mask="url(#mask0_844_9868)">
<path d="M113.309 104.154C82.8904 104.154 58.1465 79.4076 58.1465 48.9912C58.1465 29.0621 68.9565 10.6161 86.3595 0.851645C86.7196 0.649053 87.1673 0.684068 87.4925 0.939186C87.8176 1.1968 87.9552 1.622 87.8452 2.01968C86.3945 7.19205 85.6592 12.5145 85.6592 17.8394C85.6592 33.329 91.942 48.4935 102.895 59.446C113.847 70.3985 129.012 76.6814 144.501 76.6814C149.801 76.6814 155.098 75.9536 160.243 74.5179C160.641 74.4078 161.066 74.5479 161.324 74.8731C161.579 75.1982 161.611 75.6459 161.409 76.0061C151.637 93.369 133.206 104.154 113.309 104.154ZM85.2515 3.88554C69.7319 13.555 60.19 30.6178 60.19 48.9912C60.19 78.2796 84.0184 102.108 113.309 102.108C131.65 102.108 148.698 92.5912 158.375 77.1116C153.815 78.1846 149.161 78.7273 144.501 78.7273C128.471 78.7273 112.779 72.2268 101.449 60.8942C90.1137 49.5615 83.6157 33.8693 83.6157 17.8419C83.6157 13.1548 84.1635 8.47264 85.2515 3.88554Z" fill="#FFCF00"/>
</g>
<path d="M121.656 95.3882C126.47 94.5628 131.067 93.0997 135.357 91.0938L121.656 95.3882Z" fill="#FFCF00"/>
<path d="M121.656 96.4123C121.168 96.4123 120.735 96.0621 120.648 95.5619C120.553 95.0066 120.928 94.4764 121.483 94.3813C126.13 93.5835 130.652 92.1653 134.924 90.1669C135.437 89.9293 136.045 90.1494 136.285 90.6621C136.522 91.1724 136.302 91.7802 135.79 92.0203C131.355 94.0962 126.658 95.5694 121.831 96.3973C121.771 96.4073 121.713 96.4123 121.656 96.4123Z" fill="#FFCF00"/>
<path d="M69.4267 31.3779C67.5508 36.6804 66.4778 42.3605 66.3553 48.2757L69.4267 31.3779Z" fill="#FFCF00"/>
<path d="M66.3553 49.2987C66.3478 49.2987 66.3428 49.2987 66.3353 49.2987C65.77 49.2862 65.3198 48.8185 65.3323 48.2557C65.4549 42.3555 66.5079 36.5604 68.4613 31.0378C68.6489 30.5051 69.2341 30.225 69.7669 30.415C70.2996 30.6026 70.5773 31.1879 70.3897 31.7206C68.5088 37.0381 67.4958 42.6156 67.3783 48.2982C67.3658 48.856 66.9106 49.2987 66.3553 49.2987Z" fill="#FFCF00"/>
<path d="M109.925 20.4422L116.536 18.7414L109.925 17.0431L108.224 10.4326L106.526 17.0431L99.9156 18.7414L106.526 20.4422L108.224 27.0527L109.925 20.4422Z" fill="#FFCF00"/>
<path d="M108.224 28.0752C107.759 28.0752 107.352 27.7601 107.234 27.3074L105.686 21.2821L99.6605 19.7314C99.2078 19.6164 98.8926 19.2087 98.8926 18.741C98.8926 18.2757 99.2078 17.8681 99.6605 17.7505L105.686 16.2023L107.234 10.177C107.352 9.72432 107.759 9.40918 108.224 9.40918C108.692 9.40918 109.1 9.72432 109.215 10.177L110.766 16.2023L116.791 17.7505C117.241 17.8681 117.559 18.2757 117.559 18.741C117.559 19.2087 117.244 19.6164 116.791 19.7314L110.766 21.2821L109.215 27.3074C109.1 27.7601 108.692 28.0752 108.224 28.0752ZM104.022 18.741L106.779 19.4513C107.141 19.5438 107.422 19.8265 107.517 20.1866L108.224 22.9454L108.935 20.1866C109.027 19.8265 109.307 19.5438 109.67 19.4513L112.426 18.741L109.67 18.0331C109.307 17.9406 109.027 17.658 108.935 17.2978L108.224 14.539L107.517 17.2978C107.422 17.658 107.141 17.9406 106.779 18.0331L104.022 18.741Z" fill="#FFCF00"/>
<path d="M141.565 57.8104L148.175 56.1096L141.565 54.4113L139.864 47.8008L138.166 54.4113L131.555 56.1096L138.166 57.8104L139.864 64.4209L141.565 57.8104Z" fill="#FFCF00"/>
<path d="M139.864 65.4434C139.399 65.4434 138.991 65.1283 138.873 64.6755L137.325 58.6503L131.3 57.1021C130.847 56.9845 130.532 56.5768 130.532 56.1116C130.532 55.6439 130.847 55.2362 131.3 55.1212L137.325 53.5705L138.873 47.5452C138.991 47.0925 139.399 46.7773 139.864 46.7773C140.332 46.7773 140.739 47.0925 140.854 47.5452L142.405 53.5705L148.43 55.1212C148.883 55.2362 149.198 55.6439 149.198 56.1116C149.198 56.5768 148.883 56.9845 148.43 57.1021L142.405 58.6503L140.854 64.6755C140.739 65.1283 140.332 65.4434 139.864 65.4434ZM135.662 56.1091L138.418 56.8194C138.781 56.912 139.064 57.1946 139.156 57.5548L139.864 60.3135L140.574 57.5548C140.667 57.1946 140.947 56.912 141.31 56.8194L144.066 56.1091L141.31 55.4013C140.947 55.3088 140.667 55.0261 140.574 54.666L139.864 51.9072L139.156 54.666C139.064 55.0261 138.781 55.3088 138.418 55.4013L135.662 56.1091Z" fill="#FFCF00"/>
<path d="M116.518 47.9047L123.131 46.2039L116.518 44.5056L114.82 37.8926L113.122 44.5056L106.511 46.2039L113.122 47.9047L114.82 54.5152L116.518 47.9047Z" fill="#FFCF00"/>
<path d="M114.82 55.5381C114.355 55.5381 113.947 55.2205 113.829 54.7703L112.281 48.745L106.256 47.1943C105.803 47.0792 105.488 46.6716 105.488 46.2038C105.488 45.7386 105.803 45.3309 106.256 45.2134L112.281 43.6652L113.829 37.6399C113.947 37.1872 114.355 36.8721 114.82 36.8721C115.288 36.8721 115.695 37.1872 115.81 37.6399L117.359 43.6652L123.384 45.2134C123.837 45.3309 124.154 45.7386 124.154 46.2038C124.154 46.6716 123.837 47.0792 123.384 47.1943L117.359 48.745L115.81 54.7703C115.695 55.2205 115.288 55.5381 114.82 55.5381ZM110.618 46.2038L113.374 46.9142C113.737 47.0067 114.02 47.2893 114.112 47.6495L114.82 50.4058L115.528 47.6495C115.62 47.2893 115.903 47.0067 116.266 46.9142L119.022 46.2038L116.266 45.496C115.903 45.4035 115.62 45.1209 115.528 44.7607L114.82 42.0019L114.112 44.7607C114.017 45.1209 113.737 45.4035 113.374 45.496L110.618 46.2038Z" fill="#FFCF00"/>
<path d="M134.316 24.2868H124.314C123.907 24.2868 123.539 24.0467 123.376 23.6766C123.214 23.3039 123.286 22.8712 123.561 22.5711L131.33 14.1397H124.459C123.894 14.1397 123.436 13.682 123.436 13.1167C123.436 12.554 123.894 12.0938 124.459 12.0938H133.664C134.069 12.0938 134.436 12.3364 134.602 12.7065C134.764 13.0792 134.692 13.5119 134.416 13.812L126.648 22.2434H134.316C134.882 22.2434 135.339 22.7011 135.339 23.2639C135.339 23.8291 134.882 24.2868 134.316 24.2868Z" fill="#FFCF00"/>
<path d="M147.072 39.188H141.129C140.724 39.188 140.354 38.9478 140.192 38.5777C140.029 38.205 140.102 37.7723 140.377 37.4722L144.353 33.1577H141.217C140.652 33.1577 140.194 32.7 140.194 32.1347C140.194 31.572 140.652 31.1143 141.217 31.1143H146.685C147.092 31.1143 147.46 31.3544 147.622 31.7245C147.785 32.0972 147.712 32.5299 147.437 32.83L143.463 37.142H147.072C147.637 37.142 148.095 37.6022 148.095 38.165C148.095 38.7302 147.637 39.188 147.072 39.188Z" fill="#FFCF00"/>
<path d="M154.466 21.3594H148.523C148.115 21.3594 147.748 21.1193 147.585 20.7466C147.422 20.374 147.495 19.9413 147.77 19.6411L151.744 15.3291H148.608C148.043 15.3291 147.585 14.8714 147.585 14.3062C147.585 13.7409 148.043 13.2832 148.608 13.2832H154.078C154.486 13.2832 154.853 13.5233 155.016 13.896C155.178 14.2662 155.106 14.7014 154.831 14.999L150.854 19.3135H154.466C155.031 19.3135 155.489 19.7712 155.489 20.3364C155.489 20.9017 155.031 21.3594 154.466 21.3594Z" fill="#FFCF00"/>
</svg>
